<?xml version="1.0" encoding="UTF-8" standalone="no"?>
<svg
   xmlns:dc="http://purl.org/dc/elements/1.1/"
   xmlns:cc="http://creativecommons.org/ns#"
   xmlns:rdf="http://www.w3.org/1999/02/22-rdf-syntax-ns#"
   xmlns:svg="http://www.w3.org/2000/svg"
   xmlns="http://www.w3.org/2000/svg"
   xmlns:sodipodi="http://sodipodi.sourceforge.net/DTD/sodipodi-0.dtd"
   xmlns:inkscape="http://www.inkscape.org/namespaces/inkscape"
   aria-hidden="true"
   focusable="false"
   data-prefix="fab"
   data-icon="instagram"
   class="svg-inline--fa fa-instagram fa-w-14"
   role="img"
   viewBox="0 0 512 512"
   version="1.1"
   id="svg4"
   width="40"
   height="40"
   sodipodi:docname="instagram-brands.svg"
   inkscape:version="1.0.1 (3bc2e813f5, 2020-09-07)">
  <sodipodi:namedview
     pagecolor="#ffffff"
     bordercolor="#666666"
     borderopacity="1"
     objecttolerance="10"
     gridtolerance="10"
     guidetolerance="10"
     inkscape:pageopacity="0"
     inkscape:pageshadow="2"
     inkscape:window-width="1440"
     inkscape:window-height="845"
     id="namedview7"
     showgrid="false"
     inkscape:zoom="1.116058"
     inkscape:cx="256"
     inkscape:cy="220.15957"
     inkscape:window-x="0"
     inkscape:window-y="0"
     inkscape:window-maximized="1"
     inkscape:current-layer="svg4"
     inkscape:document-rotation="0" />
  <metadata
     id="metadata10">
    <rdf:RDF>
      <cc:Work
         rdf:about="">
        <dc:format>image/svg+xml</dc:format>
        <dc:type
           rdf:resource="http://purl.org/dc/dcmitype/StillImage" />
        <dc:title />
      </cc:Work>
    </rdf:RDF>
  </metadata>
  <defs
     id="defs8" />
  <circle
     style="fill:none;stroke:#ffffff;stroke-width:15.8147;stroke-linecap:round;stroke-linejoin:round;stroke-miterlimit:4;stroke-dasharray:none"
     id="path14"
     cx="257.00037"
     cy="257.00037"
     r="248.09265" />
  <path
     fill="currentColor"
     d="m 256.02453,199.59477 c -31.22168,0 -56.40521,25.18354 -56.40521,56.40523 0,31.22169 25.18353,56.40522 56.40521,56.40522 31.2217,0 56.40522,-25.18353 56.40522,-56.40522 0,-31.22169 -25.18352,-56.40523 -56.40522,-56.40523 z m 0,93.07599 c -20.17627,0 -36.67075,-16.4454 -36.67075,-36.67076 0,-20.22537 16.44538,-36.67075 36.67075,-36.67075 20.22538,0 36.67076,16.44538 36.67076,36.67075 0,20.22536 -16.49448,36.67076 -36.67076,36.67076 z m 71.8688,-95.38325 c 0,7.31452 -5.89088,13.15631 -13.15631,13.15631 -7.31451,0 -13.1563,-5.89089 -13.1563,-13.15631 0,-7.26542 5.89088,-13.15631 13.1563,-13.15631 7.26543,0 13.15631,5.89089 13.15631,13.15631 z m 37.35803,13.35267 c -0.83454,-17.62356 -4.85998,-33.2344 -17.77083,-46.09617 -12.86177,-12.86176 -28.47261,-16.8872 -46.09619,-17.77083 -18.16355,-1.03091 -72.60514,-1.03091 -90.76871,0 -17.57447,0.83455 -33.18532,4.85998 -46.09617,17.72175 -12.91085,12.86176 -16.8872,28.47261 -17.77083,46.09616 -1.03091,18.16356 -1.03091,72.60516 0,90.76872 0.83454,17.62356 4.85999,33.2344 17.77083,46.09617 12.91085,12.86177 28.47261,16.8872 46.09617,17.77084 18.16356,1.0309 72.60516,1.0309 90.76871,0 17.62358,-0.83454 33.23442,-4.85998 46.09619,-17.77084 12.86176,-12.86177 16.8872,-28.47261 17.77083,-46.09617 1.03091,-18.16356 1.03091,-72.55607 0,-90.71963 z M 341.786,320.84882 c -3.82908,9.62178 -11.24176,17.03448 -20.91264,20.91264 -14.48176,5.74362 -48.84526,4.41816 -64.84883,4.41816 -16.00357,0 -50.41614,1.27636 -64.84881,-4.41816 -9.62178,-3.82907 -17.03448,-11.24177 -20.91265,-20.91264 C 164.51946,306.36707 165.8449,272.00356 165.8449,256 c 0,-16.00357 -1.27635,-50.41616 4.41817,-64.84883 3.82907,-9.62177 11.24178,-17.03447 20.91265,-20.91264 14.48175,-5.7436 48.84524,-4.41816 64.84881,-4.41816 16.00357,0 50.41616,-1.27636 64.84883,4.41816 9.62178,3.82908 17.03448,11.24178 20.91264,20.91264 5.74362,14.48177 4.41816,48.84526 4.41816,64.84883 0,16.00356 1.32546,50.41616 -4.41816,64.84882 z"
     id="path2"
     style="fill:#ffffff;stroke-width:0.490907" />
</svg>
